# Blender v2.75 (sub 0) OBJ File: 'BookMesh.blend'
# www.blender.org
mtllib BookMesh.mtl
o Cube.003_Cube.001
v -6.923755 0.138285 -0.014657
v -6.923755 0.110877 0.003738
v -6.923756 1.658521 9.473969
v -6.923756 1.625546 9.475502
v 6.950805 0.138285 -0.014657
v 6.950805 0.110877 0.003738
v 6.950804 1.658520 9.473974
v 6.950804 1.625545 9.475508
v -6.923755 0.896398 1.176341
v -6.923755 1.439322 2.478484
v -6.923755 1.766893 3.852680
v -6.923755 1.899980 5.250485
v -6.923755 1.658175 6.647524
v -6.923755 1.559846 8.061731
v -6.923755 1.592820 8.060198
v -6.923755 1.691107 6.649807
v -6.923755 1.932509 5.256099
v -6.923755 1.799749 3.849491
v -6.923755 1.471453 2.470914
v -6.923755 0.926887 1.163687
v 6.950805 1.559844 8.061737
v 6.950805 1.658176 6.647527
v 6.950805 1.899980 5.250485
v 6.950805 1.766892 3.852681
v 6.950805 1.439322 2.478482
v 6.950805 0.896397 1.176339
v 6.950805 0.926886 1.163687
v 6.950805 1.471452 2.470912
v 6.950805 1.799748 3.849492
v 6.950805 1.932510 5.256100
v 6.950805 1.691106 6.649811
v 6.950805 1.592820 8.060204
v -7.049969 0.077374 9.988651
v -7.049969 0.533803 9.791611
v -7.049969 0.077373 9.594082
v -7.049969 0.533802 9.594084
v 7.104888 0.077374 9.988651
v 7.104888 0.533803 9.791611
v 7.104888 0.077373 9.594082
v 7.104888 0.533802 9.594084
v -7.049969 0.619721 8.176432
v -7.049969 0.104866 8.176434
v 7.104888 0.619721 8.176432
v 7.104888 0.104866 8.176434
v -7.049969 0.937550 6.632381
v -7.049969 0.101455 6.632380
v 7.104888 0.937550 6.632381
v 7.104888 0.101455 6.632380
v -7.049969 1.410443 4.537076
v -7.049969 0.108961 4.537076
v 7.104888 1.410443 4.537076
v 7.104888 0.108961 4.537076
v -7.049969 1.184306 2.561782
v -7.049969 0.114955 2.561782
v 7.104888 1.184306 2.561782
v 7.104888 0.114955 2.561782
v -7.049969 0.817169 1.252103
v -7.049969 0.110781 1.252103
v 7.104888 0.817169 1.252103
v 7.104888 0.110781 1.252103
v -7.049969 0.475416 0.723409
v -7.049969 -0.071078 0.723408
v 7.104888 0.475416 0.723409
v 7.104888 -0.071078 0.723408
v 7.104888 0.113390 -6.696136
v 7.104888 0.937549 -6.696136
v -7.049969 0.093223 -1.266139
v -7.049969 0.797281 -1.266139
v -7.049969 0.110594 -8.240191
v -7.049969 0.619722 -8.240191
v 7.104888 0.093223 -1.266139
v 7.104888 0.797281 -1.266138
v 7.104888 0.110594 -8.240191
v 7.104888 0.619722 -8.240191
v -7.049969 0.106755 -2.625539
v -7.049969 1.184307 -2.625539
v -7.049969 0.533804 -9.657841
v -7.049969 0.096274 -9.657841
v 7.104888 0.106755 -2.625539
v 7.104888 1.184307 -2.625539
v -7.049969 0.533803 -9.855370
v -7.049969 0.096274 -10.052409
v -7.049969 0.105142 -4.600834
v -7.049969 1.410443 -4.600834
v 7.104888 0.533805 -9.657839
v 7.104888 0.096275 -9.657839
v 7.104888 0.105142 -4.600832
v 7.104888 1.410443 -4.600832
v 7.104888 0.533803 -9.855366
v 7.104888 0.096274 -10.052408
v -7.049969 0.113390 -6.696137
v -7.049969 0.937550 -6.696137
v 7.104888 0.107638 3.712674
v 7.104888 1.357518 3.712674
v -7.049969 1.357518 3.712674
v -7.049969 0.107638 3.712674
v -7.049969 0.109189 5.579573
v 7.104888 0.109189 5.579573
v 7.104888 1.267476 5.579572
v -7.049969 1.267476 5.579572
v 7.104888 -0.086215 -0.004077
v 7.104888 0.030782 -0.004077
v -7.049969 0.030782 -0.004077
v -7.049969 -0.086215 -0.004077
v 7.104888 0.475416 -0.787163
v 7.104888 -0.071079 -0.787164
v -7.049969 0.475417 -0.787165
v -7.049969 -0.071078 -0.787166
v -7.049969 0.100572 -3.776430
v -7.049969 1.357518 -3.776431
v 7.104888 1.357518 -3.776430
v 7.104888 0.100572 -3.776429
v 7.104888 0.134010 -5.643330
v -7.049969 0.134010 -5.643330
v -7.049969 1.267476 -5.643329
v 7.104888 1.267476 -5.643329
v 7.397825 -0.078475 -10.304932
v 7.397825 -0.078474 10.304932
v -7.397825 -0.078475 10.304930
v -7.397822 -0.078474 -10.304935
v 7.397829 0.078473 -10.304927
v 7.397820 0.078473 10.304937
v -7.397828 0.078470 10.304930
v -7.397824 0.078473 -10.304932
v 7.423650 -0.000001 -10.340900
v 7.423646 -0.000002 10.340908
v -7.423650 -0.000001 10.340902
v -7.423647 -0.000001 -10.340906
v 7.397825 -0.257191 -1.035035
v -7.397823 -0.257191 -1.035037
v 7.397825 -0.100245 -1.035028
v -7.397825 -0.100245 -1.035034
v -7.423650 -0.178719 -1.038649
v 7.423649 -0.178718 -1.038642
v 7.397825 -0.257192 1.019591
v 7.397824 -0.100245 1.019596
v 7.423648 -0.178719 1.023154
v -7.397823 -0.257191 1.019588
v -7.397826 -0.100245 1.019589
v -7.423650 -0.178718 1.023148
v 7.397825 -0.078475 1.255265
v 7.397824 0.078472 1.255270
v 7.423648 -0.000001 1.260440
v -7.397823 -0.078474 1.255262
v -7.397826 0.078472 1.255261
v -7.423650 -0.000001 1.260434
v -7.397823 -0.078475 -1.258196
v -7.397825 0.078473 -1.258195
v -7.423650 -0.000000 -1.263428
v 7.397825 -0.078475 -1.258194
v 7.397825 0.078473 -1.258190
v 7.423649 -0.000000 -1.263422
vt 0.339096 0.539060
vt 0.339130 0.573451
vt 0.350067 0.573451
vt 0.350034 0.539060
vt 0.344545 0.619409
vt 0.355482 0.619409
vt 0.333469 0.252383
vt 0.333499 0.286773
vt 0.344436 0.286772
vt 0.344406 0.252382
vt 0.338910 0.332729
vt 0.349846 0.332729
vt 0.412526 0.689162
vt 0.379359 0.689162
vt 0.379358 0.364014
vt 0.412526 0.364014
vt 0.578362 0.013502
vt 0.611529 0.013502
vt 0.611531 0.338650
vt 0.578363 0.338650
vt 0.379358 0.013503
vt 0.412526 0.013503
vt 0.412526 0.338650
vt 0.379359 0.338650
vt 0.445693 0.013502
vt 0.445694 0.338650
vt 0.478860 0.013502
vt 0.478861 0.338650
vt 0.512027 0.013502
vt 0.512029 0.338650
vt 0.545194 0.013502
vt 0.545196 0.338650
vt 0.611530 0.689162
vt 0.578363 0.689162
vt 0.578363 0.364014
vt 0.611531 0.364014
vt 0.545195 0.689162
vt 0.545196 0.364014
vt 0.512028 0.689162
vt 0.512028 0.364014
vt 0.478861 0.689162
vt 0.478861 0.364014
vt 0.445694 0.689162
vt 0.445693 0.364014
vt 0.333289 0.046034
vt 0.333317 0.080421
vt 0.344252 0.080421
vt 0.344225 0.046034
vt 0.333345 0.114811
vt 0.344282 0.114811
vt 0.333375 0.149203
vt 0.344313 0.149203
vt 0.333406 0.183598
vt 0.344344 0.183598
vt 0.333437 0.217991
vt 0.344374 0.217991
vt 0.338941 0.367117
vt 0.349877 0.367117
vt 0.338972 0.401504
vt 0.349907 0.401504
vt 0.339003 0.435890
vt 0.349938 0.435890
vt 0.339033 0.470278
vt 0.349969 0.470278
vt 0.339064 0.504668
vt 0.350001 0.504668
vt 0.859596 0.987086
vt 0.859596 0.981772
vt 0.871876 0.981772
vt 0.871876 0.992387
vt 0.792399 0.979787
vt 0.780436 0.979787
vt 0.781156 0.942628
vt 0.794652 0.942628
vt 0.792399 0.984964
vt 0.780436 0.990129
vt 0.950257 0.471849
vt 0.950257 0.988965
vt 0.988418 0.988966
vt 0.988418 0.471849
vt 0.000000 0.000000
vt 0.323915 0.700660
vt 0.328111 0.700660
vt 0.328111 0.989535
vt 0.323915 0.989535
vt 0.781067 0.902156
vt 0.802982 0.902156
vt 0.358277 0.700660
vt 0.358277 0.989534
vt 0.857285 0.943632
vt 0.871136 0.943632
vt 0.848734 0.902092
vt 0.871228 0.902092
vt 0.391760 0.700660
vt 0.391760 0.989534
vt 0.813990 0.825625
vt 0.781229 0.825625
vt 0.781421 0.795458
vt 0.809450 0.795458
vt 0.415194 0.989534
vt 0.415194 0.700660
vt 0.437544 0.700659
vt 0.437544 0.989534
vt 0.811630 0.874560
vt 0.781270 0.874560
vt 0.781264 0.847234
vt 0.815378 0.847234
vt 0.871020 0.873768
vt 0.839858 0.873768
vt 0.836012 0.845721
vt 0.871026 0.845721
vt 0.781311 0.761129
vt 0.799827 0.761129
vt 0.871062 0.823542
vt 0.837436 0.823542
vt 0.842096 0.792579
vt 0.870865 0.792579
vt 0.455090 0.989533
vt 0.455090 0.700659
vt 0.479810 0.700659
vt 0.479810 0.989533
vt 0.851973 0.757345
vt 0.870978 0.757345
vt 0.508700 0.700659
vt 0.508700 0.989533
vt 0.780851 0.695122
vt 0.799306 0.695122
vt 0.790869 0.707676
vt 0.776545 0.707676
vt 0.522072 0.700659
vt 0.522072 0.989533
vt 0.776545 0.747271
vt 0.790869 0.747271
vt 0.861168 0.743121
vt 0.875870 0.743121
vt 0.626306 0.700660
vt 0.626306 0.989533
vt 0.601586 0.989533
vt 0.601586 0.700660
vt 0.781306 0.512319
vt 0.794652 0.512319
vt 0.802982 0.552791
vt 0.781380 0.552791
vt 0.723119 0.700661
vt 0.723119 0.989535
vt 0.689636 0.989534
vt 0.689636 0.700661
vt 0.780931 0.475160
vt 0.792399 0.475160
vt 0.837436 0.622060
vt 0.871253 0.622060
vt 0.871086 0.653023
vt 0.842096 0.653023
vt 0.852509 0.689595
vt 0.871450 0.689595
vt 0.875870 0.702481
vt 0.861168 0.702481
vt 0.571565 0.700659
vt 0.571565 0.989533
vt 0.559308 0.989533
vt 0.559308 0.700659
vt 0.781044 0.629322
vt 0.813991 0.629322
vt 0.809450 0.659489
vt 0.781206 0.659489
vt 0.757481 0.989535
vt 0.753285 0.989535
vt 0.753285 0.700662
vt 0.757481 0.700661
vt 0.857286 0.501970
vt 0.870983 0.501970
vt 0.870908 0.543510
vt 0.848735 0.543510
vt 0.781920 0.580387
vt 0.811630 0.580387
vt 0.815378 0.607713
vt 0.781164 0.607713
vt 0.839859 0.571834
vt 0.870353 0.571834
vt 0.871130 0.599881
vt 0.836013 0.599881
vt 0.888876 0.468206
vt 0.937526 0.468204
vt 0.937526 0.985721
vt 0.888876 0.985722
vt 0.792399 0.469982
vt 0.780931 0.464817
vt 0.666202 0.700661
vt 0.666202 0.989534
vt 0.643852 0.989534
vt 0.643852 0.700660
vt 0.859598 0.463830
vt 0.871369 0.463830
vt 0.859598 0.458516
vt 0.871369 0.453215
vt 0.540181 0.700659
vt 0.540181 0.989533
vt 0.873130 0.723549
vt 0.876278 0.723549
vt 0.776148 0.728202
vt 0.779215 0.728202
vt 0.310169 0.288444
vt 0.310169 0.496546
vt 0.060820 0.496546
vt 0.060820 0.288444
vt 0.059317 0.766536
vt 0.306576 0.766536
vt 0.306576 0.989828
vt 0.059317 0.989828
vt 0.029965 0.429545
vt 0.034733 0.429566
vt 0.034742 0.505264
vt 0.029965 0.505250
vt 0.034763 0.670131
vt 0.029965 0.670132
vt 0.029966 0.916963
vt 0.034793 0.916939
vt 0.034803 0.992612
vt 0.029966 0.992643
vt 0.029965 0.182739
vt 0.025228 0.182696
vt 0.025248 0.017799
vt 0.029965 0.017857
vt 0.034703 0.182782
vt 0.034682 0.017915
vt 0.025138 0.916987
vt 0.025128 0.992674
vt 0.025188 0.505236
vt 0.025168 0.670134
vt 0.025198 0.429524
vt 0.025219 0.258383
vt 0.029965 0.258419
vt 0.029965 0.335387
vt 0.025209 0.335357
vt 0.025149 0.822822
vt 0.029966 0.822807
vt 0.029966 0.839995
vt 0.025147 0.840012
vt 0.034782 0.822792
vt 0.034784 0.839979
vt 0.034712 0.258455
vt 0.034721 0.335416
vt 0.059317 0.715098
vt 0.306576 0.715098
vt 0.306576 0.729598
vt 0.059317 0.729598
vt 0.310169 0.220146
vt 0.310169 0.235804
vt 0.060820 0.235804
vt 0.060820 0.220146
vt 0.029966 0.745837
vt 0.034772 0.745829
vt 0.025159 0.745845
vt 0.029965 0.352575
vt 0.025207 0.352547
vt 0.034724 0.352603
vt 0.306576 0.783916
vt 0.059317 0.783916
vt 0.310169 0.272550
vt 0.060820 0.272550
vt 0.310169 0.008865
vt 0.060820 0.008864
vt 0.059317 0.506235
vt 0.306576 0.506235
vn -1.000000 0.000000 -0.000000
vn -0.000000 0.046500 0.998900
vn 1.000000 0.000000 0.000000
vn 0.000000 -0.557300 -0.830300
vn 0.000000 0.998900 -0.046400
vn -0.000000 -0.998900 0.046400
vn 0.000000 -0.830800 0.556600
vn -0.000000 -0.923000 0.384800
vn -0.000000 -0.972700 0.231900
vn -0.000000 -0.995500 0.094800
vn 0.000000 -0.985300 -0.170500
vn -0.000000 -0.997600 -0.069400
vn 0.000000 0.831100 -0.556200
vn 0.000000 0.923100 -0.384500
vn 0.000000 0.972800 -0.231700
vn -0.000000 0.995600 -0.094000
vn -0.000000 0.985300 0.170700
vn 0.000000 0.997600 0.069500
vn 0.000000 0.396300 0.918100
vn 0.000000 -1.000000 0.000000
vn 0.000000 1.000000 -0.000000
vn 0.000000 -0.999800 -0.019400
vn 0.000000 0.998200 0.060500
vn 0.000000 -1.000000 0.000200
vn 0.000000 -1.000000 0.002200
vn 0.000000 0.979500 0.201600
vn 0.000000 0.990700 0.135900
vn 0.000000 -1.000000 -0.006400
vn 0.000000 0.988900 -0.148800
vn 0.000000 -0.945600 0.325300
vn 0.000000 -1.000000 0.003200
vn 0.000000 0.962900 -0.269900
vn 0.000000 0.839800 -0.542900
vn 0.000000 0.988900 0.148800
vn -0.000000 -1.000000 0.005400
vn 0.000000 0.979500 -0.201600
vn 0.000000 -1.000000 0.001800
vn -0.000000 0.830000 0.557800
vn 0.000000 -0.999600 -0.027700
vn -0.000000 0.961800 0.273800
vn 0.000000 -0.999900 0.010100
vn -0.000000 0.998200 -0.060500
vn 0.000000 -1.000000 -0.010000
vn -0.000000 -0.945900 -0.324500
vn 0.000000 0.410600 -0.911800
vn 0.000000 0.990700 -0.135900
vn 0.000000 0.997900 -0.064100
vn 0.000000 -1.000000 0.001600
vn 0.000000 0.954200 0.299000
vn 0.000000 -1.000000 -0.007300
vn 0.000000 0.853300 -0.521500
vn 0.000000 0.997900 0.064100
vn 0.000000 -1.000000 -0.005500
vn 0.000000 0.954200 -0.299000
vn 0.000000 -0.999800 0.019600
vn -0.000000 0.869600 0.493800
vn 0.949900 0.312600 0.000000
vn -0.000000 0.416700 0.909000
vn -0.949900 0.312600 -0.000000
vn 0.000000 -0.416700 -0.909100
vn 0.000000 0.416700 -0.909000
vn -0.949900 -0.312600 -0.000000
vn -0.000000 -0.416700 0.909000
vn 0.949900 -0.312600 0.000000
vn 0.915000 -0.315300 -0.251600
vn 0.927600 0.292100 0.233100
vn -0.000000 0.780500 0.625100
vn 0.000000 -0.780500 -0.625100
vn -0.929800 0.293600 -0.221900
vn -0.918500 -0.315500 0.238500
vn 0.918500 -0.315500 0.238400
vn 0.929800 0.293600 -0.221900
vn 0.000000 0.796800 -0.604200
vn -0.000000 -0.796800 0.604200
vn -0.915000 -0.315300 -0.251600
vn -0.927500 0.292100 0.233100
usemtl Material
s off
f 14/1/1 4/2/1 3/3/1 15/4/1
f 4/2/2 8/5/2 7/6/2 3/3/2
f 26/7/3 6/8/3 5/9/3 27/10/3
f 6/8/4 2/11/4 1/12/4 5/9/4
f 15/13/5 3/14/5 7/15/5 32/16/5
f 21/17/6 8/18/6 4/19/6 14/20/6
f 6/21/7 26/22/7 9/23/7 2/24/7
f 26/22/8 25/25/8 10/26/8 9/23/8
f 25/25/9 24/27/9 11/28/9 10/26/9
f 24/27/10 23/29/10 12/30/10 11/28/10
f 23/29/11 22/31/11 13/32/11 12/30/11
f 22/31/12 21/17/12 14/20/12 13/32/12
f 1/33/13 20/34/13 27/35/13 5/36/13
f 20/34/14 19/37/14 28/38/14 27/35/14
f 19/37/15 18/39/15 29/40/15 28/38/15
f 18/39/16 17/41/16 30/42/16 29/40/16
f 17/41/17 16/43/17 31/44/17 30/42/17
f 16/43/18 15/13/18 32/16/18 31/44/18
f 8/45/3 21/46/3 32/47/3 7/48/3
f 21/46/3 22/49/3 31/50/3 32/47/3
f 22/49/3 23/51/3 30/52/3 31/50/3
f 23/51/3 24/53/3 29/54/3 30/52/3
f 24/53/3 25/55/3 28/56/3 29/54/3
f 25/55/3 26/7/3 27/10/3 28/56/3
f 2/11/1 9/57/1 20/58/1 1/12/1
f 9/57/1 10/59/1 19/60/1 20/58/1
f 10/59/1 11/61/1 18/62/1 19/60/1
f 11/61/1 12/63/1 17/64/1 18/62/1
f 12/63/1 13/65/1 16/66/1 17/64/1
f 13/65/1 14/1/1 15/4/1 16/66/1
f 34/67/1 36/68/1 35/69/1 33/70/1
f 40/71/3 39/72/3 44/73/3 43/74/3
f 40/71/3 38/75/3 37/76/3 39/72/3
f 38/77/19 34/78/19 33/79/19 37/80/19
f 33/81/20 35/81/20 39/81/20 37/81/20
f 38/82/21 40/83/21 36/84/21 34/85/21
f 43/74/3 44/73/3 48/86/3 47/87/3
f 39/81/22 35/81/22 42/81/22 44/81/22
f 36/84/23 40/83/23 43/88/23 41/89/23
f 35/69/1 36/68/1 41/90/1 42/91/1
f 98/81/24 97/81/24 50/81/24 52/81/24
f 42/91/1 41/90/1 45/92/1 46/93/1
f 44/81/25 42/81/25 46/81/25 48/81/25
f 41/89/26 43/88/26 47/94/26 45/95/26
f 94/96/3 93/97/3 56/98/3 55/99/3
f 100/100/27 99/101/27 51/102/27 49/103/27
f 99/104/3 98/105/3 52/106/3 51/107/3
f 97/108/1 100/109/1 49/110/1 50/111/1
f 55/99/3 56/98/3 60/112/3 59/113/3
f 96/114/1 95/115/1 53/116/1 54/117/1
f 93/81/28 96/81/28 54/81/28 56/81/28
f 95/118/29 94/119/29 55/120/29 53/121/29
f 60/81/30 58/81/30 62/81/30 64/81/30
f 54/117/1 53/116/1 57/122/1 58/123/1
f 56/81/31 54/81/31 58/81/31 60/81/31
f 53/121/32 55/120/32 59/124/32 57/125/32
f 71/126/3 72/127/3 105/128/3 106/129/3
f 57/125/33 59/124/33 63/130/33 61/131/33
f 59/113/3 60/112/3 64/132/3 63/133/3
f 58/123/1 57/122/1 61/134/1 62/135/1
f 111/136/34 110/137/34 76/138/34 80/139/34
f 109/81/35 112/81/35 79/81/35 75/81/35
f 73/140/3 74/141/3 66/142/3 65/143/3
f 74/144/36 70/145/36 92/146/36 66/147/36
f 86/148/3 85/149/3 74/141/3 73/140/3
f 69/81/37 73/81/37 65/81/37 91/81/37
f 110/150/1 109/151/1 75/152/1 76/153/1
f 68/154/1 67/155/1 108/156/1 107/157/1
f 72/158/38 68/159/38 107/160/38 105/161/38
f 114/81/39 113/81/39 87/81/39 83/81/39
f 80/139/40 76/138/40 68/159/40 72/158/40
f 112/162/3 111/163/3 80/164/3 79/165/3
f 81/166/21 77/167/21 85/168/21 89/169/21
f 76/153/1 75/152/1 67/155/1 68/154/1
f 78/81/41 86/81/41 73/81/41 69/81/41
f 85/168/42 77/167/42 70/145/42 74/144/42
f 90/81/20 86/81/20 78/81/20 82/81/20
f 70/170/1 69/171/1 91/172/1 92/173/1
f 75/81/43 79/81/43 71/81/43 67/81/43
f 113/174/3 116/175/3 88/176/3 87/177/3
f 79/165/3 80/164/3 72/127/3 71/126/3
f 67/81/44 71/81/44 106/81/44 108/81/44
f 115/178/1 114/179/1 83/180/1 84/181/1
f 81/182/45 89/183/45 90/184/45 82/185/45
f 89/186/3 85/149/3 86/148/3 90/187/3
f 116/188/46 115/189/46 84/190/46 88/191/46
f 77/192/1 78/193/1 69/171/1 70/170/1
f 77/192/1 81/194/1 82/195/1 78/193/1
f 49/103/47 51/102/47 94/119/47 95/118/47
f 52/81/48 50/81/48 96/81/48 93/81/48
f 50/111/1 49/110/1 95/115/1 96/114/1
f 51/107/3 52/106/3 93/97/3 94/96/3
f 46/93/1 45/92/1 100/109/1 97/108/1
f 47/87/3 48/86/3 98/105/3 99/104/3
f 45/95/49 47/94/49 99/101/49 100/100/49
f 48/81/50 46/81/50 97/81/50 98/81/50
f 61/131/51 63/130/51 102/196/51 103/197/51
f 62/135/1 61/134/1 103/198/1 104/199/1
f 63/133/3 64/132/3 101/200/3 102/201/3
f 88/191/52 84/190/52 110/137/52 111/136/52
f 83/81/53 87/81/53 112/81/53 109/81/53
f 87/177/3 88/176/3 111/163/3 112/162/3
f 84/181/1 83/180/1 109/151/1 110/150/1
f 65/143/3 66/142/3 116/175/3 113/174/3
f 92/173/1 91/172/1 114/179/1 115/178/1
f 66/147/54 92/146/54 115/189/54 116/188/54
f 91/81/55 65/81/55 113/81/55 114/81/55
f 108/156/1 104/199/1 103/198/1 107/157/1
f 105/128/3 102/201/3 101/200/3 106/129/3
f 107/160/56 103/197/56 102/196/56 105/161/56
f 141/202/20 118/203/20 119/204/20 144/205/20
f 142/206/21 145/207/21 123/208/21 122/209/21
f 143/210/57 142/211/57 122/212/57 126/213/57
f 126/213/58 122/212/58 123/214/58 127/215/58
f 149/216/59 148/217/59 124/218/59 128/219/59
f 125/220/60 117/221/60 120/222/60 128/223/60
f 121/224/61 125/220/61 128/223/61 124/225/61
f 147/226/62 149/216/62 128/219/62 120/227/62
f 118/228/63 126/213/63 127/215/63 119/229/63
f 141/230/64 143/210/64 126/213/64 118/228/64
f 150/231/65 152/232/65 134/233/65 129/234/65
f 138/235/62 140/236/62 133/237/62 130/238/62
f 140/236/59 139/239/59 132/240/59 133/237/59
f 152/232/66 151/241/66 131/242/66 134/233/66
f 151/243/67 148/244/67 132/245/67 131/246/67
f 150/247/68 129/248/68 130/249/68 147/250/68
f 146/251/69 145/252/69 139/239/69 140/236/69
f 144/253/70 146/251/70 140/236/70 138/235/70
f 129/234/64 134/233/64 137/254/64 135/255/64
f 134/233/57 131/242/57 136/256/57 137/254/57
f 131/246/21 132/245/21 139/257/21 136/258/21
f 129/248/20 135/259/20 138/260/20 130/249/20
f 119/229/62 127/215/62 146/251/62 144/253/62
f 127/215/59 123/214/59 145/252/59 146/251/59
f 135/255/71 137/254/71 143/210/71 141/230/71
f 137/254/72 136/256/72 142/211/72 143/210/72
f 136/258/73 139/257/73 145/207/73 142/206/73
f 135/259/74 141/202/74 144/205/74 138/260/74
f 117/261/20 150/247/20 147/250/20 120/262/20
f 121/263/21 124/264/21 148/244/21 151/243/21
f 125/220/57 121/224/57 151/241/57 152/232/57
f 117/221/64 125/220/64 152/232/64 150/231/64
f 130/238/75 133/237/75 149/216/75 147/226/75
f 133/237/76 132/240/76 148/217/76 149/216/76
